<?xml version="1.0" standalone="no"?>
<!DOCTYPE svg PUBLIC "-//W3C//DTD SVG 20010904//EN"
 "http://www.w3.org/TR/2001/REC-SVG-20010904/DTD/svg10.dtd">
<svg version="1.0" xmlns="http://www.w3.org/2000/svg"
 width="1024.000000pt" height="1024.000000pt" viewBox="0 0 1024.000000 1024.000000"
 preserveAspectRatio="xMidYMid meet">
<metadata>
Created by potrace 1.14, written by Peter Selinger 2001-2017
</metadata>
<g transform="translate(0.000000,1024.000000) scale(0.100000,-0.100000)"
fill="#000000" stroke="none">
<path d="M0 5120 l0 -5120 5120 0 5120 0 0 5120 0 5120 -5120 0 -5120 0 0
-5120z m4237 2948 c58 -38 93 -112 93 -196 0 -125 -59 -442 -96 -515 -27 -53
-44 -67 -84 -67 -52 0 -92 44 -129 139 -16 42 -44 107 -61 144 -44 97 -73 228
-67 302 7 98 58 174 142 212 50 22 154 13 202 -19z m3736 -352 c50 -18 76 -42
98 -91 35 -77 18 -152 -46 -201 -35 -26 -46 -29 -159 -35 -163 -8 -194 -22
-306 -140 -72 -76 -91 -90 -108 -84 -30 9 -37 46 -16 86 30 60 131 201 213
301 131 158 218 202 324 164z m-1622 -27 c50 -25 104 -91 119 -145 16 -55 8
-134 -18 -194 -31 -70 -138 -206 -246 -312 -140 -138 -188 -155 -240 -85 -18
24 -22 46 -24 139 -6 177 22 363 69 463 64 136 217 196 340 134z m-2827 10
c49 -13 121 -80 150 -139 25 -50 96 -260 121 -356 21 -86 20 -139 -5 -164 -38
-38 -83 -20 -224 89 -35 27 -91 64 -126 81 -74 38 -154 109 -183 165 -33 62
-30 156 6 217 55 94 157 136 261 107z m2059 -453 c52 -22 71 -50 72 -109 l0
-52 -132 0 c-72 0 -135 -4 -139 -8 -4 -4 9 -7 30 -7 22 0 35 -4 31 -10 -4 -6
11 -11 37 -11 l43 -2 -47 -6 c-63 -9 -67 -16 -9 -16 26 0 55 6 64 13 10 9 17
10 22 2 3 -5 -2 -10 -11 -10 -10 0 -15 -3 -11 -6 9 -9 48 6 42 17 -4 5 3 9 14
9 12 0 21 -4 21 -9 0 -11 -53 -33 -71 -30 -20 4 -183 -9 -328 -27 -165 -19
-399 -73 -474 -109 -18 -8 -47 -17 -64 -18 -17 -1 -29 -4 -27 -6 5 -5 -65 -31
-84 -31 -7 0 -26 -10 -41 -21 -17 -13 -34 -18 -42 -14 -7 5 -10 4 -6 -2 4 -6
-14 -18 -41 -27 -26 -10 -68 -27 -94 -38 -57 -25 -94 -16 -146 38 -31 32 -34
40 -29 76 4 30 16 51 44 79 98 96 420 230 698 290 245 52 604 77 678 45z
m1358 -77 c56 -19 96 -56 125 -114 23 -49 26 -64 21 -115 -18 -164 -100 -231
-318 -260 -98 -13 -275 -12 -321 0 -89 25 -88 101 2 215 55 70 169 184 218
217 88 61 194 83 273 57z m-1378 -106 c-7 -2 -21 -2 -30 0 -10 3 -4 5 12 5 17
0 24 -2 18 -5z m2290 -21 c37 -32 9 -102 -41 -102 -51 0 -81 62 -49 102 23 30
55 30 90 0z m-5051 -69 c23 -22 28 -35 28 -73 0 -53 -17 -82 -59 -100 -71 -29
-151 24 -151 99 0 96 112 142 182 74z m5787 -119 c93 -39 199 -203 242 -374 8
-32 13 -104 12 -175 0 -118 -2 -126 -112 -565 -61 -245 -164 -677 -230 -960
-65 -283 -128 -539 -141 -567 -74 -174 -282 -218 -402 -85 -50 55 -63 108 -88
335 -11 106 -25 209 -31 229 -21 79 -12 138 60 408 39 146 97 355 130 465 33
110 58 201 56 203 -1 2 -35 -43 -76 -100 -256 -361 -302 -414 -375 -441 -87
-31 -167 -17 -227 41 -31 29 -77 113 -97 177 -7 22 -16 44 -20 48 -3 4 -14
-47 -24 -114 -15 -106 -15 -124 -3 -142 8 -12 62 -74 121 -137 74 -81 117
-136 142 -187 l36 -72 -11 -68 c-23 -133 -83 -389 -101 -430 -27 -62 -102
-137 -163 -163 -72 -32 -166 -32 -230 -1 -55 27 -94 71 -141 161 -47 89 -116
296 -116 346 0 23 22 178 49 345 28 167 71 444 96 614 79 528 112 710 139 768
71 148 209 227 349 198 84 -18 135 -68 198 -197 105 -213 143 -213 305 -7 277
353 359 430 489 464 39 10 119 2 164 -17z m-5088 -56 c7 -12 14 -64 17 -114 5
-90 4 -92 -21 -109 -19 -12 -30 -14 -45 -6 -52 28 -72 173 -31 225 25 32 64
34 80 4z m2128 -98 c153 -25 266 -137 300 -298 50 -239 -106 -468 -351 -513
-154 -27 -326 68 -395 218 -54 116 -40 289 31 401 62 98 180 176 289 192 29 4
54 8 57 9 3 0 34 -4 69 -9z m-2299 -100 c11 -11 20 -29 20 -40 0 -24 -34 -60
-56 -60 -49 0 -77 54 -49 96 19 30 58 31 85 4z m1588 -17 c37 -23 62 -73 62
-125 0 -26 -29 -155 -69 -300 -71 -260 -75 -278 -135 -533 -104 -445 -196
-929 -196 -1035 0 -41 26 -80 54 -80 23 0 66 -40 88 -83 17 -32 22 -60 22
-117 0 -64 -4 -83 -29 -128 -44 -81 -115 -132 -202 -147 -85 -14 -150 33 -201
145 -49 106 -40 353 29 780 89 552 275 1415 328 1517 55 108 169 157 249 106z
m-2352 -22 c135 -61 142 -256 12 -322 -84 -43 -185 -19 -234 54 -23 34 -28 53
-29 103 0 76 32 131 97 163 53 26 100 26 154 2z m1577 -155 c70 -29 91 -87 72
-198 -7 -40 -35 -174 -63 -298 -173 -768 -286 -1423 -261 -1515 10 -36 12 -37
47 -31 133 22 139 22 181 -20 47 -47 65 -117 59 -233 -5 -110 -27 -136 -182
-211 -196 -95 -238 -104 -306 -70 -48 25 -96 114 -112 214 -21 125 18 544 93
996 78 471 196 1090 229 1200 23 77 64 130 122 159 50 24 76 26 121 7z m2454
-31 c48 -20 71 -41 93 -85 29 -58 30 -88 15 -377 -15 -279 -37 -779 -54 -1208
-5 -131 -14 -245 -21 -265 -47 -132 -216 -164 -274 -52 -21 41 -42 162 -46
261 0 9 -4 10 -12 3 -7 -5 -41 -20 -75 -32 l-61 -22 -11 -67 c-24 -140 -33
-172 -64 -218 -35 -53 -101 -93 -152 -93 -68 0 -126 62 -145 157 -24 112 -16
184 43 423 176 708 374 1330 466 1463 74 108 197 154 298 112z m-4527 -30 c19
-23 8 -68 -19 -82 -30 -15 -57 -2 -74 34 -10 22 -8 28 15 48 28 24 58 24 78 0z
m1525 -104 c40 -23 75 -89 82 -154 7 -67 -24 -145 -73 -182 -34 -26 -141 -81
-308 -159 l-92 -43 -33 -224 c-41 -283 -39 -269 -35 -269 2 0 58 27 125 60 74
37 135 60 155 60 82 0 128 -51 121 -135 -6 -81 -24 -98 -189 -181 -81 -41
-148 -77 -148 -82 0 -4 -3 -30 -6 -59 l-6 -52 68 29 c38 16 83 30 99 30 88 0
152 -108 111 -188 -24 -46 -56 -67 -226 -152 -91 -45 -166 -83 -168 -85 -7 -6
-35 -435 -29 -441 4 -4 53 15 109 41 170 80 238 71 292 -36 48 -96 31 -211
-38 -264 -53 -40 -448 -232 -546 -265 -46 -15 -64 -17 -94 -9 -51 14 -121 84
-135 134 -21 76 -11 400 25 779 8 88 12 162 8 165 -3 3 -31 -8 -62 -26 l-57
-31 -7 -64 c-23 -211 -60 -749 -67 -977 -9 -299 -15 -325 -80 -368 -80 -53
-178 -9 -216 97 -29 81 -77 313 -82 397 -3 45 5 198 17 341 12 142 20 271 18
286 l-3 26 -90 -54 -90 -53 -7 -64 c-25 -217 -41 -549 -42 -846 l-2 -332 -30
-38 c-42 -51 -70 -65 -126 -60 -61 5 -108 41 -138 104 -20 42 -65 160 -132
342 l-19 54 31 276 c84 749 258 2083 282 2163 26 87 126 158 202 144 19 -4 49
-20 65 -37 53 -53 53 -51 -14 -554 -44 -328 -96 -777 -93 -801 3 -21 9 -19
108 43 58 35 108 68 112 72 4 4 19 108 32 231 45 405 96 787 111 831 20 55 56
103 108 140 55 40 132 42 170 3 38 -37 42 -82 23 -219 -50 -356 -100 -795 -91
-804 3 -2 10 1 17 6 7 6 50 29 96 53 45 23 82 47 82 53 0 30 63 528 95 751 39
277 55 322 125 371 40 28 423 202 516 235 66 23 120 20 169 -9z m2129 -526
c55 -26 70 -64 63 -164 -7 -95 -70 -469 -142 -846 -91 -477 -112 -540 -207
-641 -29 -31 -80 -70 -113 -87 -51 -27 -71 -32 -135 -32 -128 0 -221 62 -279
185 -24 50 -26 66 -26 185 0 122 2 133 28 188 50 100 149 136 213 76 36 -33
44 -76 31 -164 -13 -86 -6 -108 37 -113 34 -4 41 15 66 187 52 350 182 985
226 1096 23 60 58 100 106 124 51 25 88 27 132 6z m1904 -1741 c41 -28 18
-104 -31 -104 -26 0 -67 38 -67 62 0 23 35 58 58 58 10 0 28 -7 40 -16z
m-1143 -48 c19 -8 45 -32 61 -55 24 -38 26 -47 22 -116 -8 -129 -84 -249 -212
-338 -111 -78 -232 -124 -488 -188 -157 -39 -235 -56 -683 -150 -582 -122
-827 -198 -1054 -326 -132 -75 -185 -116 -343 -270 -153 -149 -198 -177 -286
-176 -127 3 -270 132 -307 278 -78 312 101 633 450 807 183 92 507 168 1160
273 782 125 1338 222 1490 259 78 19 147 19 190 2z m960 -18 c38 -33 45 -91
15 -123 -45 -48 -107 -20 -117 52 -11 81 45 120 102 71z m-348 -305 c25 -24
51 -66 41 -69 -2 0 3 -8 10 -17 19 -23 8 -82 -28 -145 -23 -39 -34 -50 -50
-47 -24 5 -37 -12 -21 -28 9 -9 11 -8 6 4 -4 10 0 16 10 16 22 0 19 -7 -25
-57 -30 -35 -41 -42 -51 -33 -9 9 -9 16 -1 26 7 8 8 18 4 22 -4 5 -2 5 5 1 7
-4 10 -14 7 -24 -5 -15 -4 -15 6 1 6 10 9 25 6 33 -9 23 5 66 18 61 7 -3 13 7
14 24 2 22 -1 27 -13 23 -8 -4 -15 -1 -15 5 0 6 -4 11 -9 11 -4 0 -6 -11 -3
-25 3 -16 0 -25 -8 -25 -7 0 -10 7 -6 15 9 24 -4 17 -40 -21 -38 -39 -39 -45
-22 -62 8 -8 9 -12 1 -12 -6 0 -14 6 -17 13 -5 9 -7 9 -12 -1 -3 -7 -24 -29
-45 -49 -24 -22 -37 -43 -34 -51 4 -12 3 -12 -9 -3 -16 13 -32 -2 -21 -20 8
-11 -22 -49 -38 -49 -6 0 0 9 13 20 13 11 20 23 17 27 -9 8 -57 -36 -57 -53 0
-17 30 -26 46 -13 8 6 14 8 14 4 0 -4 7 -2 15 5 8 7 13 16 10 20 -7 11 42 53
54 46 5 -4 12 -2 15 3 9 14 -20 32 -40 25 -12 -4 -7 5 14 26 19 17 37 29 40
26 3 -4 -3 -13 -14 -20 -15 -12 -17 -17 -6 -27 10 -11 14 -10 25 0 10 11 10
13 0 7 -21 -12 -15 5 9 24 17 13 25 15 30 7 6 -9 11 -8 19 3 8 12 9 10 4 -8
-4 -15 -2 -22 5 -20 7 2 14 -2 17 -9 6 -16 -157 -184 -176 -181 -11 2 -15 -3
-13 -16 3 -14 -1 -17 -13 -12 -9 3 -13 2 -10 -3 6 -11 -102 -107 -116 -103 -5
1 -8 -4 -7 -10 2 -8 -8 -13 -27 -13 -23 0 -30 -5 -30 -19 0 -10 -9 -24 -20
-30 -11 -6 -33 -21 -49 -34 -16 -13 -35 -21 -42 -18 -8 3 -13 0 -11 -6 1 -6
-10 -18 -24 -27 -14 -9 -41 -26 -60 -39 -19 -12 -40 -20 -46 -17 -7 2 -12 0
-10 -5 1 -4 -20 -20 -46 -34 -27 -14 -45 -20 -41 -14 4 7 -4 3 -17 -9 -25 -23
-111 -63 -135 -63 -8 0 -14 -3 -14 -8 0 -12 -119 -54 -131 -46 -8 5 -9 3 -4
-6 6 -10 4 -12 -8 -7 -9 3 -17 2 -19 -2 -4 -10 -173 -64 -268 -85 -36 -9 -76
-13 -90 -10 -20 5 -22 3 -10 -5 12 -9 8 -11 -17 -11 -17 0 -62 -6 -100 -14
-106 -22 -282 -36 -466 -36 -156 0 -342 13 -377 27 -8 3 -41 7 -73 9 -112 6
-177 59 -177 144 0 52 30 97 79 117 31 13 61 14 241 3 666 -42 1322 140 1800
499 116 86 311 273 429 409 68 79 86 90 142 91 25 1 44 -7 66 -26z m1021 -44
c115 -56 135 -221 37 -308 -33 -28 -89 -51 -128 -51 -27 0 -89 28 -115 53
-157 146 13 399 206 306z m-1078 -189 c0 -5 -5 -10 -11 -10 -5 0 -7 5 -4 10 3
6 8 10 11 10 2 0 4 -4 4 -10z m519 -154 c32 -17 51 -54 51 -100 0 -70 -79
-119 -145 -92 -43 18 -65 52 -65 99 0 31 7 46 34 73 38 38 77 44 125 20z
m-4680 -268 c18 -61 33 -143 30 -168 -3 -20 -11 -26 -35 -28 -25 -2 -36 3 -51
25 -28 39 -43 89 -43 139 0 34 5 47 26 63 33 26 58 15 73 -31z m-189 -88 c24
-24 25 -48 4 -78 -30 -43 -94 -19 -94 35 0 32 26 63 52 63 10 0 27 -9 38 -20z
m3930 0 c0 -5 -2 -10 -4 -10 -3 0 -8 5 -11 10 -3 6 -1 10 4 10 6 0 11 -4 11
-10z m302 -157 c24 -21 23 -55 -2 -78 -44 -39 -108 21 -75 71 18 28 51 31 77
7z m-4408 -144 c34 -26 33 -45 -6 -143 -55 -141 -90 -172 -185 -164 -57 5
-100 35 -129 90 -18 35 -18 101 0 136 37 71 100 101 212 102 67 0 86 -4 108
-21z"/>
<path d="M5200 7071 l-35 -7 33 -8 c23 -5 32 -13 32 -28 0 -18 4 -19 53 -13
62 9 96 24 57 26 -24 1 -23 2 5 10 23 6 17 7 -24 4 -63 -5 -59 11 4 18 25 2
15 4 -25 4 -36 0 -81 -3 -100 -6z m90 -41 c-8 -5 -22 -9 -30 -9 -10 0 -8 3 5
9 27 12 43 12 25 0z"/>
<path d="M5060 7050 l-35 -7 35 -1 c19 0 49 4 65 8 l30 8 -30 0 c-16 -1 -46
-4 -65 -8z"/>
<path d="M5165 7040 c-3 -5 -3 -10 2 -11 4 0 -1 -4 -12 -9 -16 -7 -14 -9 15
-9 26 -1 31 2 20 9 -10 6 -11 10 -2 10 6 0 12 5 12 10 0 6 -6 10 -14 10 -8 0
-18 -4 -21 -10z"/>
<path d="M4930 7025 l-35 -14 40 4 c22 2 43 4 48 4 4 1 7 6 7 11 0 13 -17 12
-60 -5z"/>
<path d="M5048 7013 c7 -3 16 -2 19 1 4 3 -2 6 -13 5 -11 0 -14 -3 -6 -6z"/>
<path d="M4790 6986 c-65 -18 -81 -26 -37 -20 24 4 37 2 37 -5 0 -6 5 -11 11
-11 8 0 8 5 -1 15 -10 12 -9 15 6 15 11 0 26 5 34 10 19 12 6 11 -50 -4z"/>
<path d="M4948 6993 c6 -3 10 -8 8 -12 -3 -4 7 -8 20 -9 20 -1 22 1 13 11 -7
7 -22 13 -33 14 -12 1 -15 -1 -8 -4z"/>
<path d="M5065 6990 c-25 -11 1 -11 35 0 20 6 21 8 5 8 -11 0 -29 -3 -40 -8z"/>
<path d="M4873 6975 c-7 -20 2 -29 17 -20 9 6 9 10 -1 17 -10 7 -6 8 13 5 15
-2 25 0 22 4 -9 15 -44 10 -51 -6z"/>
<path d="M4653 6941 c-23 -9 -45 -20 -50 -24 -4 -5 6 -3 22 3 16 6 43 9 60 6
16 -3 37 -1 45 5 12 8 9 9 -9 4 -19 -6 -23 -4 -18 9 8 19 4 19 -50 -3z"/>
<path d="M4838 6943 c7 -3 16 -2 19 1 4 3 -2 6 -13 5 -11 0 -14 -3 -6 -6z"/>
<path d="M4640 6904 l-35 -13 40 6 c44 6 50 9 38 16 -4 2 -24 -2 -43 -9z"/>
<path d="M4738 6903 c7 -3 16 -2 19 1 4 3 -2 6 -13 5 -11 0 -14 -3 -6 -6z"/>
<path d="M4580 6880 c0 -5 5 -10 10 -10 6 0 10 5 10 10 0 6 -4 10 -10 10 -5 0
-10 -4 -10 -10z"/>
<path d="M4454 6854 c-16 -23 -16 -26 -1 -42 10 -9 17 -11 17 -5 0 7 -5 15
-10 18 -6 4 -7 11 -4 17 4 6 10 5 16 -3 8 -11 9 -10 4 3 -3 10 2 22 12 27 16
10 16 10 0 11 -10 0 -25 -12 -34 -26z"/>
<path d="M4422 6858 c-7 -7 -12 -19 -12 -27 0 -14 -1 -14 -10 -1 -5 8 -10 13
-11 10 0 -3 -2 -13 -4 -23 -3 -14 1 -18 15 -14 11 3 21 -1 24 -9 4 -10 -1 -13
-17 -11 -12 2 -16 2 -9 0 7 -3 10 -9 6 -14 -3 -5 6 -4 21 3 18 8 22 14 13 20
-7 4 -9 8 -5 8 4 0 3 10 -4 21 -9 17 -8 23 2 30 7 4 11 10 8 13 -3 3 -11 0
-17 -6z"/>
<path d="M4540 6866 c0 -2 7 -7 16 -10 8 -3 12 -2 9 4 -6 10 -25 14 -25 6z"/>
<path d="M4610 6860 c0 -5 5 -10 10 -10 6 0 10 5 10 10 0 6 -4 10 -10 10 -5 0
-10 -4 -10 -10z"/>
<path d="M4495 6850 c3 -5 8 -10 11 -10 2 0 4 5 4 10 0 6 -5 10 -11 10 -5 0
-7 -4 -4 -10z"/>
<path d="M4528 6833 c7 -3 16 -2 19 1 4 3 -2 6 -13 5 -11 0 -14 -3 -6 -6z"/>
<path d="M4500 6810 c0 -5 5 -10 11 -10 5 0 7 5 4 10 -3 6 -8 10 -11 10 -2 0
-4 -4 -4 -10z"/>
<path d="M6310 5463 c-37 -107 -69 -205 -120 -380 -10 -35 -16 -63 -12 -63 4
0 41 11 83 25 67 23 77 29 82 54 8 39 21 481 15 481 -3 0 -25 -53 -48 -117z"/>
<path d="M7107 3500 c-8 -22 -11 -40 -6 -40 5 0 13 15 16 33 l7 32 7 -30 c6
-27 7 -28 8 -5 2 48 -15 53 -32 10z"/>
<path d="M7081 3514 c0 -11 3 -14 6 -6 3 7 2 16 -1 19 -3 4 -6 -2 -5 -13z"/>
<path d="M7055 3431 c-3 -5 -1 -12 5 -16 5 -3 10 1 10 9 0 18 -6 21 -15 7z"/>
<path d="M7066 3352 c-3 -5 1 -9 9 -9 8 0 12 4 9 9 -3 4 -7 8 -9 8 -2 0 -6 -4
-9 -8z"/>
<path d="M6915 3160 c-3 -5 -1 -10 4 -10 6 0 11 5 11 10 0 6 -2 10 -4 10 -3 0
-8 -4 -11 -10z"/>
<path d="M6826 3127 c6 -17 -28 -41 -41 -29 -5 4 -5 1 -1 -5 9 -17 16 -16 44
5 21 17 22 20 8 32 -14 11 -16 10 -10 -3z"/>
<path d="M6691 3091 c-8 -5 -10 -14 -6 -21 7 -12 -10 -30 -30 -30 -5 0 -3 4 5
10 8 5 12 11 9 14 -7 7 -99 -77 -99 -91 0 -30 65 -15 75 18 4 11 17 22 31 25
13 3 24 11 24 16 0 6 8 4 17 -3 11 -10 14 -10 9 -1 -5 8 -1 12 12 12 11 0 22
6 25 14 4 10 0 12 -14 9 -15 -4 -22 0 -26 16 -6 23 -11 25 -32 12z m19 -11 c0
-5 -5 -10 -11 -10 -5 0 -7 5 -4 10 3 6 8 10 11 10 2 0 4 -4 4 -10z m-70 -72
c0 -7 -12 -21 -25 -31 -22 -15 -25 -16 -25 -2 0 8 6 15 14 15 8 0 16 7 20 15
7 18 16 20 16 3z"/>
<path d="M6810 3065 c-7 -8 -8 -15 -2 -15 5 0 15 7 22 15 7 8 8 15 2 15 -5 0
-15 -7 -22 -15z"/>
<path d="M6697 2974 c-14 -14 -30 -23 -36 -20 -5 4 -13 2 -16 -4 -8 -13 13
-40 29 -39 7 0 6 2 -1 6 -7 2 -13 9 -13 15 0 6 7 8 15 4 8 -3 14 0 12 6 -1 6
4 13 12 16 9 3 11 0 6 -9 -7 -12 5 -4 45 30 3 2 -3 1 -14 -3 -14 -5 -17 -2
-12 9 8 21 3 19 -27 -11z"/>
<path d="M6550 2970 c0 -5 -5 -10 -10 -10 -6 0 -20 -9 -32 -20 -17 -16 -18
-20 -6 -20 9 0 18 7 22 15 8 22 26 18 26 -6 0 -11 -4 -18 -8 -15 -11 6 -38
-11 -30 -19 3 -4 16 -2 27 5 15 8 21 20 21 45 0 19 -2 35 -5 35 -3 0 -5 -4 -5
-10z"/>
<path d="M6407 2877 c-37 -21 -66 -41 -63 -44 2 -2 17 4 32 14 26 17 28 17 21
0 -5 -12 -1 -17 12 -17 12 0 21 10 25 25 4 17 16 27 37 33 25 6 28 10 18 18
-11 8 -31 1 -82 -29z"/>
<path d="M6541 2866 c2 -2 15 -9 29 -16 23 -12 24 -12 11 3 -7 10 -20 17 -29
17 -8 0 -13 -2 -11 -4z"/>
<path d="M6480 2826 c0 -9 -4 -14 -10 -11 -5 3 -10 1 -10 -4 0 -6 5 -11 10
-11 13 0 25 28 16 37 -3 4 -6 -1 -6 -11z"/>
<path d="M6240 2774 c-20 -14 -28 -24 -19 -24 17 0 65 37 58 44 -2 2 -20 -7
-39 -20z"/>
<path d="M6425 2760 c-3 -5 -2 -10 4 -10 5 0 13 5 16 10 3 6 2 10 -4 10 -5 0
-13 -4 -16 -10z"/>
<path d="M6176 2740 c-19 -6 -19 -7 -1 -13 20 -8 29 -4 24 11 -2 5 -13 6 -23
2z"/>
<path d="M6396 2723 c-6 -14 -5 -15 5 -6 7 7 10 15 7 18 -3 3 -9 -2 -12 -12z"/>
<path d="M6070 2690 c-11 -7 -11 -10 -2 -10 7 0 12 -7 10 -16 -2 -10 4 -19 12
-21 13 -4 13 -3 0 6 -9 7 -10 11 -3 11 6 0 11 9 10 20 -1 22 -5 24 -27 10z"/>
<path d="M4438 2624 c-10 -3 -18 -10 -18 -15 0 -11 23 -12 36 0 9 9 172 -4
183 -15 9 -8 -120 -2 -146 7 -12 5 -25 4 -28 -1 -3 -4 0 -10 6 -12 8 -3 7 -9
-3 -19 -8 -8 -19 -49 -24 -97 -8 -69 -8 -82 4 -77 7 3 18 5 23 5 9 0 5 43 -7
82 -3 9 0 19 6 23 5 3 10 -1 10 -9 0 -9 5 -16 10 -16 6 0 10 18 10 40 0 41 9
47 44 34 12 -5 16 -20 16 -60 0 -47 2 -54 20 -54 18 0 20 7 20 54 0 34 -5 56
-12 59 -7 3 2 6 20 6 31 1 32 0 32 -39 0 -28 4 -40 14 -40 8 0 16 6 19 13 8
22 -4 67 -19 67 -20 0 -17 28 4 32 23 6 -78 28 -148 33 -30 2 -63 2 -72 -1z
m160 -51 c-10 -2 -28 -2 -40 0 -13 2 -5 4 17 4 22 1 32 -1 23 -4z"/>
<path d="M4385 2590 c-2 -3 12 -7 31 -8 19 -2 34 -1 34 2 0 7 -61 13 -65 6z"/>
<path d="M5798 2583 c7 -3 16 -2 19 1 4 3 -2 6 -13 5 -11 0 -14 -3 -6 -6z"/>
<path d="M4688 2573 c6 -2 18 -2 25 0 6 3 1 5 -13 5 -14 0 -19 -2 -12 -5z"/>
<path d="M5740 2570 c-21 -7 -21 -8 -5 -9 11 0 27 4 35 9 18 11 5 11 -30 0z"/>
<path d="M5884 2551 c3 -5 14 -11 25 -14 14 -3 18 -1 14 9 -3 8 -14 14 -25 14
-10 0 -17 -4 -14 -9z"/>
<path d="M5598 2535 c-2 -3 -33 -11 -69 -19 -36 -8 -52 -14 -36 -15 15 -1 27
-5 27 -10 0 -5 19 -9 43 -9 31 0 37 2 22 8 l-20 9 20 0 c17 1 17 3 5 11 -12 8
-10 10 10 10 14 0 32 5 40 10 12 8 10 10 -11 10 -14 0 -28 -2 -31 -5z m-51
-31 c-3 -3 -12 -4 -19 -1 -8 3 -5 6 6 6 11 1 17 -2 13 -5z"/>
<path d="M4361 2514 c0 -11 3 -14 6 -6 3 7 2 16 -1 19 -3 4 -6 -2 -5 -13z"/>
<path d="M5645 2510 c3 -5 13 -10 21 -10 8 0 14 5 14 10 0 6 -9 10 -21 10 -11
0 -17 -4 -14 -10z"/>
<path d="M4373 2484 c-17 -17 -16 -29 1 -43 19 -16 27 -1 18 31 -6 21 -9 23
-19 12z m11 -30 c3 -8 2 -12 -4 -9 -6 3 -10 10 -10 16 0 14 7 11 14 -7z"/>
<path d="M4680 2490 c0 -6 7 -10 15 -10 8 0 15 2 15 4 0 2 -7 6 -15 10 -8 3
-15 1 -15 -4z"/>
<path d="M5383 2490 c-13 -5 -23 -14 -23 -20 0 -5 -7 -10 -15 -10 -8 0 -15 4
-15 8 0 12 -50 13 -85 3 -64 -21 -436 -36 -467 -19 -12 5 -18 5 -18 -2 0 -5 5
-10 10 -10 6 0 10 -4 10 -9 0 -6 -12 -9 -26 -8 -15 1 -29 -4 -31 -10 -4 -10
32 -11 157 -7 100 3 160 2 156 -4 -3 -5 14 -5 42 1 26 6 81 11 122 12 41 1 83
5 93 9 13 6 22 3 33 -13 19 -26 30 -27 37 -1 3 11 13 20 24 20 14 0 15 -2 4
-9 -7 -5 -9 -10 -5 -13 5 -2 19 6 30 18 l22 23 -21 22 -21 22 27 -5 c14 -3 24
-1 21 3 -7 11 -32 10 -61 -1z m-103 -40 c0 -11 -4 -20 -8 -20 -4 0 -8 9 -8 20
0 11 4 20 8 20 4 0 8 -9 8 -20z m-82 -7 c-10 -2 -26 -2 -35 0 -10 3 -2 5 17 5
19 0 27 -2 18 -5z m-118 -13 c-42 -6 -43 -7 -15 -12 17 -3 11 -4 -14 -2 -24 2
-71 5 -105 6 l-61 2 75 6 c41 4 95 7 120 7 l45 0 -45 -7z m-203 -6 c-3 -3 -12
-4 -19 -1 -8 3 -5 6 6 6 11 1 17 -2 13 -5z"/>
<path d="M5750 2470 c-9 -6 -10 -10 -3 -10 6 0 15 5 18 10 8 12 4 12 -15 0z"/>
<path d="M5670 2461 c0 -6 4 -13 10 -16 6 -3 7 1 4 9 -7 18 -14 21 -14 7z"/>
<path d="M5618 2453 c6 -2 18 -2 25 0 6 3 1 5 -13 5 -14 0 -19 -2 -12 -5z"/>
<path d="M5600 2429 c0 -5 9 -9 20 -9 11 0 20 2 20 4 0 2 -9 6 -20 9 -11 3
-20 1 -20 -4z"/>
<path d="M5188 2403 c6 -2 18 -2 25 0 6 3 1 5 -13 5 -14 0 -19 -2 -12 -5z"/>
<path d="M4625 2390 c19 -8 18 -9 -5 -10 -24 -2 -24 -2 5 -11 17 -5 41 -8 55
-5 14 2 46 1 73 -3 35 -6 47 -5 47 5 0 7 6 14 13 17 6 2 3 2 -8 0 -11 -2 -36
-6 -55 -8 -30 -4 -31 -3 -10 4 22 8 20 9 -15 8 -22 -1 -58 2 -80 5 -27 5 -33
5 -20 -2z m58 -17 c-7 -2 -21 -2 -30 0 -10 3 -4 5 12 5 17 0 24 -2 18 -5z"/>
<path d="M4488 2383 c7 -3 16 -2 19 1 4 3 -2 6 -13 5 -11 0 -14 -3 -6 -6z"/>
<path d="M5148 2383 c12 -2 30 -2 40 0 9 3 -1 5 -23 4 -22 0 -30 -2 -17 -4z"/>
<path d="M5300 2380 c34 -11 60 -11 35 0 -11 5 -29 8 -40 8 -16 0 -15 -2 5 -8z"/>
<path d="M5265 2360 c-13 -5 -14 -9 -5 -9 8 0 24 4 35 9 13 5 14 9 5 9 -8 0
-24 -4 -35 -9z"/>
</g>
</svg>
